<?xml version="1.1" encoding="UTF-8"?>
<svg xmlns="http://www.w3.org/2000/svg"
    xmlns:latexdraw="http://latexdraw.sourceforge.net/namespaces/latexdraw"
    version="1.1" baseProfile="full">
    <g>
        <g latexdraw:type="polygon" id="id352779678">
            <polygon
                points="358.0,217.99999999999994 378.00000000000006,199.33333333333348 378.00000000000006,199.33333333333348 418.0,162.0 457.99999999999994,162.0 498.00000000000006,162.0 538.0,162.0 577.9999999999997,199.33333333333348 598.0,236.66666666666674 598.0,273.9999999999999 577.9999999999997,311.3333333333335 498.00000000000006,348.6666666666664 498.00000000000006,367.3333333333328 498.00000000000006,385.9999999999999 498.00000000000006,423.3333333333331 498.00000000000006,442.0 457.99999999999994,442.0 457.99999999999994,423.3333333333331 457.99999999999994,367.3333333333328 457.99999999999994,329.9999999999999 498.00000000000006,311.3333333333335 558.0,273.9999999999999 558.0,236.66666666666674 538.0,217.99999999999994 518.0000000000001,199.33333333333348 457.99999999999994,199.33333333333348 438.00000000000017,199.33333333333348 398.0,236.66666666666674 358.0,217.99999999999994 "
                stroke-width="6.0" stroke="black" fill="white" latexdraw:rotationAngle="0.0"/>
        </g>
        <g latexdraw:type="circle" id="id1073583568">
            <circle cx="480.0" cy="530.0" r="47.0"
                latexdraw:borderPos="outer" stroke-width="6.0"
                stroke="black" fill="#ff0033"/>
        </g>
        <g latexdraw:type="polygon" id="id2043632689">
            <polygon
                points="404.0,523.2000000000005 384.0,541.133333333333 384.0,541.133333333333 344.0,577.0 304.0,577.0 264.0,577.0 224.0,577.0 184.00000000000034,541.133333333333 164.0,505.2666666666663 164.0,469.4 184.00000000000034,433.5333333333331 264.0,397.66666666666697 264.0,379.73333333333426 264.0,361.79999999999995 264.0,325.9333333333335 264.0,308.0 304.0,308.0 304.0,325.9333333333335 304.0,379.73333333333426 304.0,415.60000000000025 264.0,433.5333333333331 204.0,469.4 204.0,505.2666666666663 224.0,523.2000000000005 243.9999999999999,541.133333333333 304.0,541.133333333333 323.9999999999998,541.133333333333 364.0,505.2666666666663 404.0,523.2000000000005 "
                stroke-width="6.0" stroke="black" fill="white" latexdraw:rotationAngle="3.141592653589793"/>
        </g>
        <g latexdraw:type="circle" id="id972792237" transform="rotate(180.0) translate(-564.0 -418.0)">
            <circle cx="282.0" cy="209.0" r="47.0"
                latexdraw:borderPos="outer" stroke-width="6.0"
                stroke="black" fill="#ff0033"/>
        </g>
    </g>
    <defs/>
    <metadata>
        <latexdraw:metadata>
            <latexdraw:latexIncludes/>
            <latexdraw:displayXScale>true</latexdraw:displayXScale>
            <latexdraw:displayYScale>true</latexdraw:displayYScale>
            <latexdraw:unit>CM</latexdraw:unit>
            <latexdraw:zoom>1.0</latexdraw:zoom>
            <latexdraw:magneticGridStyle>CUSTOMISED</latexdraw:magneticGridStyle>
            <latexdraw:gridGap>20</latexdraw:gridGap>
            <latexdraw:magneticGrid>false</latexdraw:magneticGrid>
            <latexdraw:version>3.3.9</latexdraw:version>
            <latexdraw:size>
                <latexdraw:width>1131</latexdraw:width>
                <latexdraw:height>814</latexdraw:height>
            </latexdraw:size>
            <latexdraw:position>
                <latexdraw:x>0.0</latexdraw:x>
                <latexdraw:y>23.0</latexdraw:y>
            </latexdraw:position>
        </latexdraw:metadata>
    </metadata>
</svg>
